_________________________  Visit us at _________________________
  
http://p2pdl.com  ____________________________  http://p2pdl.com


Robin Hood 2010 BRRip 720p x264 AAC - PRiSTiNE [P2PDL]

Genre: Action | Adventure | Drama
Plot: In 13th century England, Robin and his band of marauders 
confront corruption in a local village and lead an uprising 
against the crown that will forever alter the balance of world power.
Director: Ridley Scott
Stars: Russell Crowe, Cate Blanchett, Max von Sydow
Rated: Rated PG-13 for violence including intense sequences of warfare, and some sexual content

Info: 
http://www.imdb.com/title/tt0955308/

General
Complete name                  : Robin Hood 2010 BRRip 720p x264 AAC - PRiSTiNE.mp4
Format                         : MPEG-4
File size                      : 871 MiB
Duration                       : 2h 35mn
Overall bit rate mode          : Variable
Overall bit rate               : 782 Kbps

Video
Format                         : AVC
Format/Info                    : Advanced Video Codec
Format profile                 : High 10@L4.1
Bit rate                       : 699 Kbps
Width                          : 1 280 pixels
Height                         : 528 pixels
Display aspect ratio           : 2.40:1
Frame rate mode                : Constant
Frame rate                     : 23.976 fps
Bit depth                      : 10 bits
Scan type                      : Progressive
Stream size                    : 778 MiB (89%)
Writing library                : x264 core 130 r2273 b3065e6

Audio
Format                         : AAC
Format/Info                    : Advanced Audio Codec
Bit rate                       : 79.9 Kbps
Channel(s)                     : 2 channels
Channel positions              : Front: L R
Sampling rate                  : 48.0 KHz / 24.0 KHz
Stream size                    : 89.1 MiB (10%)
Language                       : English

Subtitle                       : Yes (English)
Source                         : Dir Cut BluRay 720p DTS x264-3Li (Thanks)

Screenshots:
 
http://www.ultraimg.com/images/5hm2V.jpg 
http://www.ultraimg.com/images/0Hy9A.jpg 
http://www.ultraimg.com/images/ikJN6.jpg 
http://www.ultraimg.com/images/fQYJr.jpg 
http://www.ultraimg.com/images/8zVhw.jpg 
http://www.ultraimg.com/images/9IwC0.jpg 
http://www.ultraimg.com/images/3xUC0.jpg 
http://www.ultraimg.com/images/x6kQK.jpg


----------------------------------------------------------------------------------------------------


Encoded using revolutionary 10bit encoding, which enables us to provide you more crispier 
and sharper images at small sizes, just make sure you follow our instructions without a fault.
Recommend to you to use latest version of VLC player. Install K-Lite Codec Pack or shark007 codecs
in case of any kind of problem in playback (For non-VLC Media Player users). Alternatively, install
Core AVC codecs, the fastest decoder that there is coupled with Community Center Codec Pack and play
on Windows Media Player Classic. Check sample to be sure.
Enjoy!

Encoder Notes:Looking For Early Access To Anything You Can Provide DVDScr, R5, DVDR, BluRay, Direct
Audio, Music Releases and Seedboxes. We require dedicated servers, so as to do more 
and fast releases of movies.
If You Got anything to offer please contact us at "prg@hush.com".

Face book Fan Page:   
http://www.fb.me/p2pdl